<svg xmlns="http://www.w3.org/2000/svg" width="1600" height="520" viewBox="0 0 1600 520" role="img" aria-labelledby="title desc">
  <title id="title">AI Platform</title>
  <desc id="desc">面向 AI 应用全生命周期的一体化工程平台</desc>
  <defs>
    <linearGradient id="bg" x1="0" y1="0" x2="1" y2="1">
      <stop offset="0" stop-color="#0b1020"/>
      <stop offset="0.55" stop-color="#111a32"/>
      <stop offset="1" stop-color="#13243a"/>
    </linearGradient>
    <linearGradient id="accent" x1="0" y1="0" x2="1" y2="0">
      <stop offset="0" stop-color="#38bdf8"/>
      <stop offset="0.5" stop-color="#22c55e"/>
      <stop offset="1" stop-color="#f59e0b"/>
    </linearGradient>
    <filter id="shadow" x="-20%" y="-20%" width="140%" height="140%">
      <feDropShadow dx="0" dy="12" stdDeviation="18" flood-color="#020617" flood-opacity="0.45"/>
    </filter>
    <pattern id="grid" width="48" height="48" patternUnits="userSpaceOnUse">
      <path d="M 48 0 L 0 0 0 48" fill="none" stroke="#94a3b8" stroke-opacity="0.075" stroke-width="1"/>
    </pattern>
  </defs>

  <rect width="1600" height="520" rx="28" fill="url(#bg)"/>
  <rect width="1600" height="520" rx="28" fill="url(#grid)"/>
  <path d="M0 420 C260 350 460 500 740 418 C1010 338 1240 410 1600 286 L1600 520 L0 520 Z" fill="#0f172a" fill-opacity="0.7"/>

  <g transform="translate(92 84)">
    <rect width="72" height="72" rx="16" fill="#f8fafc"/>
    <text x="36" y="47" text-anchor="middle" font-family="Inter,Segoe UI,Arial,sans-serif" font-size="24" font-weight="800" fill="#0f172a">AP</text>
    <rect x="92" y="8" width="138" height="30" rx="8" fill="#1e293b" stroke="#334155"/>
    <text x="161" y="29" text-anchor="middle" font-family="Inter,Segoe UI,Arial,sans-serif" font-size="13" font-weight="700" letter-spacing="1.4" fill="#7dd3fc">AI ENGINEERING</text>

    <text x="0" y="164" font-family="Inter,Segoe UI,Arial,sans-serif" font-size="72" font-weight="800" fill="#f8fafc">AI Platform</text>
    <rect x="2" y="184" width="650" height="6" rx="3" fill="url(#accent)"/>
    <text x="0" y="244" font-family="Microsoft YaHei,Segoe UI,Arial,sans-serif" font-size="30" font-weight="600" fill="#dbeafe">面向 AI 应用全生命周期的一体化工程平台</text>
    <text x="0" y="293" font-family="Microsoft YaHei,Segoe UI,Arial,sans-serif" font-size="20" fill="#94a3b8">Agent · RAG · PromptOps · Evaluation · Governance · Delivery</text>
  </g>

  <g transform="translate(1010 72)" filter="url(#shadow)">
    <rect width="490" height="360" rx="20" fill="#111827" stroke="#334155" stroke-width="2"/>
    <rect x="22" y="22" width="446" height="48" rx="10" fill="#1f2937"/>
    <circle cx="48" cy="46" r="7" fill="#38bdf8"/>
    <rect x="68" y="38" width="132" height="15" rx="5" fill="#64748b"/>
    <rect x="350" y="35" width="92" height="22" rx="6" fill="#2563eb"/>

    <g transform="translate(22 92)">
      <rect width="102" height="84" rx="10" fill="#182235" stroke="#27364f"/>
      <rect x="14" y="14" width="30" height="4" rx="2" fill="#38bdf8"/>
      <rect x="14" y="32" width="58" height="23" rx="5" fill="#dbeafe" fill-opacity="0.9"/>
      <rect x="14" y="65" width="72" height="5" rx="2" fill="#475569"/>

      <rect x="114" width="102" height="84" rx="10" fill="#182235" stroke="#27364f"/>
      <rect x="128" y="14" width="30" height="4" rx="2" fill="#22c55e"/>
      <rect x="128" y="32" width="58" height="23" rx="5" fill="#dcfce7" fill-opacity="0.9"/>
      <rect x="128" y="65" width="72" height="5" rx="2" fill="#475569"/>

      <rect x="228" width="102" height="84" rx="10" fill="#182235" stroke="#27364f"/>
      <rect x="242" y="14" width="30" height="4" rx="2" fill="#f59e0b"/>
      <rect x="242" y="32" width="58" height="23" rx="5" fill="#fef3c7" fill-opacity="0.9"/>
      <rect x="242" y="65" width="72" height="5" rx="2" fill="#475569"/>

      <rect x="342" width="104" height="84" rx="10" fill="#182235" stroke="#27364f"/>
      <rect x="356" y="14" width="30" height="4" rx="2" fill="#a78bfa"/>
      <rect x="356" y="32" width="58" height="23" rx="5" fill="#ede9fe" fill-opacity="0.9"/>
      <rect x="356" y="65" width="72" height="5" rx="2" fill="#475569"/>
    </g>

    <g transform="translate(22 198)">
      <rect width="276" height="138" rx="12" fill="#182235" stroke="#27364f"/>
      <text x="16" y="27" font-family="Inter,Segoe UI,Arial,sans-serif" font-size="12" font-weight="700" fill="#cbd5e1">AI APPLICATION LIFECYCLE</text>
      <path d="M34 94 C72 56 110 114 146 72 C178 36 212 75 244 42" fill="none" stroke="#38bdf8" stroke-width="4" stroke-linecap="round"/>
      <path d="M34 110 C78 86 102 120 146 96 C190 72 215 106 244 82" fill="none" stroke="#22c55e" stroke-width="3" stroke-linecap="round" stroke-opacity="0.9"/>

      <rect x="292" width="154" height="138" rx="12" fill="#182235" stroke="#27364f"/>
      <circle cx="369" cy="67" r="33" fill="none" stroke="#334155" stroke-width="12"/>
      <path d="M369 34 A33 33 0 1 1 343 87" fill="none" stroke="#f59e0b" stroke-width="12" stroke-linecap="round"/>
      <text x="369" y="72" text-anchor="middle" font-family="Inter,Segoe UI,Arial,sans-serif" font-size="19" font-weight="800" fill="#f8fafc">87%</text>
      <text x="369" y="119" text-anchor="middle" font-family="Inter,Segoe UI,Arial,sans-serif" font-size="11" fill="#94a3b8">QUALITY GATE</text>
    </g>
  </g>
</svg>
